# Blender 4.4.1
# www.blender.org
mtllib sundial.mtl
o Cube
v -0.500000 -0.531250 0.500000
v -0.500000 -0.406250 0.500000
v -0.500000 -0.531250 -0.500000
v -0.500000 -0.406250 -0.500000
v 0.500000 -0.531250 0.500000
v 0.500000 -0.406250 0.500000
v 0.500000 -0.531250 -0.500000
v 0.500000 -0.406250 -0.500000
vn -1.0000 -0.0000 -0.0000
vn -0.0000 -0.0000 -1.0000
vn 1.0000 -0.0000 -0.0000
vn -0.0000 -0.0000 1.0000
vn -0.0000 -1.0000 -0.0000
vn -0.0000 1.0000 -0.0000
vt 0.944052 0.947305
vt 0.930966 0.947305
vt 0.930966 0.952071
vt 0.944052 0.952071
vt 0.930966 0.964707
vt 0.944052 0.964707
vt 0.930966 0.951621
vt 0.944052 0.951621
vt 0.930966 0.938536
vt 0.944052 0.938536
vt 0.957138 0.964707
vt 0.957138 0.951621
vt 0.917881 0.964707
vt 0.917881 0.951621
s 0
f 1/1/1 2/2/1 4/3/1 3/4/1
f 3/4/2 4/3/2 8/5/2 7/6/2
f 7/6/3 8/5/3 6/7/3 5/8/3
f 5/8/4 6/7/4 2/9/4 1/10/4
f 3/11/5 7/6/5 5/8/5 1/12/5
f 8/5/6 4/13/6 2/14/6 6/7/6
o Cylinder
v 0.000000 -0.412092 -0.498820
v 0.000000 -0.399487 -0.515620
v 0.097545 -0.412092 -0.489213
v 0.097545 -0.392693 -0.508827
v 0.191342 -0.412092 -0.460760
v 0.191342 -0.372574 -0.488707
v 0.277785 -0.412092 -0.414555
v 0.277785 -0.339902 -0.456036
v 0.353553 -0.412092 -0.352373
v 0.353553 -0.295933 -0.412067
v 0.415735 -0.412092 -0.276605
v 0.415735 -0.242357 -0.358490
v 0.461940 -0.412092 -0.190162
v 0.461940 -0.195250 -0.290162
v 0.490393 -0.412092 -0.096365
v 0.490393 -0.114908 -0.231042
v 0.500000 -0.412092 0.001180
v 0.500000 -0.045933 -0.162067
v 0.490393 -0.412092 0.098725
v 0.490393 0.023041 -0.093092
v 0.461940 -0.412092 0.192522
v 0.461940 0.089366 -0.026768
v 0.415735 -0.412092 0.278965
v 0.415735 0.150490 0.034357
v 0.353553 -0.412092 0.354733
v 0.353553 0.204067 0.087933
v 0.277785 -0.412092 0.416915
v 0.277785 0.248036 0.131902
v 0.191342 -0.412092 0.463120
v 0.191342 0.280707 0.164574
v 0.097545 -0.412092 0.491573
v 0.097545 0.300827 0.184693
v 0.000000 -0.412092 0.501180
v 0.000000 0.307620 0.191487
v -0.097545 -0.412092 0.491573
v -0.097545 0.300827 0.184693
v -0.191342 -0.412092 0.463120
v -0.191342 0.280707 0.164574
v -0.277785 -0.412092 0.416915
v -0.277785 0.248036 0.131902
v -0.353553 -0.412092 0.354733
v -0.353553 0.204067 0.087933
v -0.415735 -0.412092 0.278965
v -0.415735 0.150490 0.034357
v -0.461940 -0.412092 0.192522
v -0.461940 0.089366 -0.026768
v -0.490393 -0.412092 0.098725
v -0.490393 0.023041 -0.093092
v -0.500000 -0.412092 0.001180
v -0.500000 -0.045933 -0.162067
v -0.490393 -0.412092 -0.096365
v -0.490393 -0.114908 -0.231042
v -0.461940 -0.412092 -0.190162
v -0.461940 -0.181232 -0.297366
v -0.415735 -0.412092 -0.276605
v -0.415735 -0.242357 -0.358490
v -0.353553 -0.412092 -0.352373
v -0.353553 -0.295933 -0.412067
v -0.277785 -0.412092 -0.414555
v -0.277785 -0.339902 -0.456036
v -0.191342 -0.412092 -0.460760
v -0.191342 -0.372574 -0.488707
v -0.097545 -0.412092 -0.489213
v -0.097545 -0.392693 -0.508827
v 0.000000 -0.105755 -0.171889
v 0.000000 -0.036111 -0.102245
v -0.044830 -0.102633 -0.168766
v 0.044830 -0.102633 -0.168766
v 0.049246 -0.070933 -0.137067
v -0.049246 -0.070933 -0.137067
v -0.044830 -0.039234 -0.105367
v 0.044830 -0.039234 -0.105367
vn 0.0814 -0.7486 -0.6580
vn 0.2596 -0.6066 -0.7514
vn 0.4380 -0.4745 -0.7635
vn 0.6022 -0.3778 -0.7033
vn 0.7469 -0.2951 -0.5959
vn 0.8661 -0.2128 -0.4523
vn 0.9496 -0.1301 -0.2850
vn 0.9944 -0.0434 -0.0967
vn 0.9944 0.0430 0.0969
vn 0.9501 0.1254 0.2857
vn 0.8655 0.2002 0.4591
vn 0.7476 0.2643 0.6093
vn 0.6041 0.3162 0.7314
vn 0.4427 0.3551 0.8233
vn 0.2698 0.3809 0.8844
vn 0.0906 0.3937 0.9148
vn -0.0906 0.3937 0.9148
vn -0.2698 0.3809 0.8844
vn -0.4427 0.3551 0.8233
vn -0.6041 0.3162 0.7314
vn -0.7476 0.2643 0.6093
vn -0.8655 0.2002 0.4591
vn -0.9501 0.1254 0.2857
vn -0.9944 0.0430 0.0969
vn -0.9944 -0.0434 -0.0967
vn -0.9500 -0.1300 -0.2838
vn -0.8653 -0.2139 -0.4533
vn -0.7469 -0.2951 -0.5959
vn -0.6022 -0.3778 -0.7033
vn -0.4380 -0.4745 -0.7635
vn -0.2596 -0.6066 -0.7514
vn -0.0814 -0.7486 -0.6580
vn -0.0000 -1.0000 -0.0000
vn 0.0276 0.7564 -0.6535
vn -0.0276 0.7564 -0.6535
vn -0.0276 0.6535 -0.7564
vn 0.0728 0.6855 -0.7245
vn 0.0276 0.6535 -0.7564
vn 0.0728 0.7245 -0.6855
vn -0.0588 0.7211 -0.6903
vn -0.0728 0.6855 -0.7245
vt 0.911338 0.964707
vt 0.911338 0.938536
vt 0.912974 0.938536
vt 0.912974 0.964707
vt 0.914609 0.938536
vt 0.914609 0.964707
vt 0.916245 0.938536
vt 0.916245 0.964707
vt 0.917881 0.938536
vt 0.917881 0.964707
vt 0.919516 0.938536
vt 0.919516 0.964707
vt 0.921152 0.938536
vt 0.921152 0.964707
vt 0.922788 0.938536
vt 0.922788 0.964707
vt 0.924424 0.938536
vt 0.924424 0.964707
vt 0.926059 0.938536
vt 0.926059 0.964707
vt 0.927695 0.938536
vt 0.927695 0.964707
vt 0.929331 0.938536
vt 0.929331 0.964707
vt 0.930966 0.938536
vt 0.930966 0.964707
vt 0.932602 0.938536
vt 0.932602 0.964707
vt 0.934238 0.938536
vt 0.934238 0.964707
vt 0.935873 0.938536
vt 0.935873 0.964707
vt 0.937509 0.938536
vt 0.937509 0.964707
vt 0.938690 0.938621
vt 0.939145 0.964707
vt 0.940732 0.938621
vt 0.940781 0.964707
vt 0.942367 0.938621
vt 0.942416 0.964707
vt 0.944003 0.938621
vt 0.944052 0.964707
vt 0.945639 0.938621
vt 0.945688 0.964707
vt 0.947274 0.938621
vt 0.947323 0.964707
vt 0.948910 0.938621
vt 0.948959 0.964707
vt 0.950546 0.938621
vt 0.950595 0.964707
vt 0.952181 0.938621
vt 0.952230 0.964707
vt 0.953817 0.938621
vt 0.953866 0.964707
vt 0.955453 0.938621
vt 0.955502 0.964707
vt 0.957089 0.938621
vt 0.957138 0.964707
vt 0.958724 0.938621
vt 0.958773 0.964707
vt 0.960360 0.938621
vt 0.960409 0.964707
vt 0.961996 0.938621
vt 0.962045 0.964707
vt 0.963631 0.938621
vt 0.963680 0.964707
vt 0.937500 0.966792
vt 0.940166 0.966530
vt 0.942730 0.965752
vt 0.945093 0.964489
vt 0.947164 0.962789
vt 0.948864 0.960718
vt 0.950127 0.958355
vt 0.950905 0.955791
vt 0.951167 0.953125
vt 0.950905 0.950459
vt 0.950127 0.947895
vt 0.948864 0.945532
vt 0.947164 0.943461
vt 0.945093 0.941761
vt 0.942730 0.940498
vt 0.940166 0.939720
vt 0.937500 0.939458
vt 0.934834 0.939720
vt 0.932270 0.940498
vt 0.929907 0.941761
vt 0.927836 0.943461
vt 0.926136 0.945532
vt 0.924873 0.947895
vt 0.924095 0.950459
vt 0.923833 0.953125
vt 0.924095 0.955791
vt 0.924873 0.958355
vt 0.926136 0.960718
vt 0.927836 0.962789
vt 0.929907 0.964489
vt 0.932270 0.965752
vt 0.934834 0.966530
vt 0.357032 0.848516
vt 0.049999 0.541484
vt 0.005414 0.545875
vt 0.005414 0.994161
vt 0.102425 0.984606
vt 0.195708 0.956309
vt 0.281678 0.910357
vt 0.357032 0.145282
vt 0.049999 0.452315
vt 0.005414 0.447923
vt 0.005414 -0.000362
vt 0.102425 0.009193
vt 0.195708 0.037490
vt 0.281678 0.083442
vt 0.054390 0.496899
vt 0.502676 0.496899
vt 0.493121 0.399889
vt 0.464824 0.306606
vt 0.418872 0.220636
vt 0.418872 0.773163
vt 0.464824 0.687193
vt 0.493121 0.593910
s 0
f 9/15/7 10/16/7 12/17/7 11/18/7
f 11/18/8 12/17/8 14/19/8 13/20/8
f 13/20/9 14/19/9 16/21/9 15/22/9
f 15/22/10 16/21/10 18/23/10 17/24/10
f 17/24/11 18/23/11 20/25/11 19/26/11
f 19/26/12 20/25/12 22/27/12 21/28/12
f 21/28/13 22/27/13 24/29/13 23/30/13
f 23/30/14 24/29/14 26/31/14 25/32/14
f 25/32/15 26/31/15 28/33/15 27/34/15
f 27/34/16 28/33/16 30/35/16 29/36/16
f 29/36/17 30/35/17 32/37/17 31/38/17
f 31/38/18 32/37/18 34/39/18 33/40/18
f 33/40/19 34/39/19 36/41/19 35/42/19
f 35/42/20 36/41/20 38/43/20 37/44/20
f 37/44/21 38/43/21 40/45/21 39/46/21
f 39/46/22 40/45/22 42/47/22 41/48/22
f 41/48/23 42/47/23 44/49/23 43/50/23
f 43/50/24 44/49/24 46/51/24 45/52/24
f 45/52/25 46/51/25 48/53/25 47/54/25
f 47/54/26 48/53/26 50/55/26 49/56/26
f 49/56/27 50/55/27 52/57/27 51/58/27
f 51/58/28 52/57/28 54/59/28 53/60/28
f 53/60/29 54/59/29 56/61/29 55/62/29
f 55/62/30 56/61/30 58/63/30 57/64/30
f 57/64/31 58/63/31 60/65/31 59/66/31
f 59/66/32 60/65/32 62/67/32 61/68/32
f 61/68/33 62/67/33 64/69/33 63/70/33
f 63/70/34 64/69/34 66/71/34 65/72/34
f 65/72/35 66/71/35 68/73/35 67/74/35
f 67/74/36 68/73/36 70/75/36 69/76/36
f 69/76/37 70/75/37 72/77/37 71/78/37
f 71/78/38 72/77/38 10/79/38 9/80/38
f 9/81/39 11/82/39 13/83/39 15/84/39 17/85/39 19/86/39 21/87/39 23/88/39 25/89/39 27/90/39 29/91/39 31/92/39 33/93/39 35/94/39 37/95/39 39/96/39 41/97/39 43/98/39 45/99/39 47/100/39 49/101/39 51/102/39 53/103/39 55/104/39 57/105/39 59/106/39 61/107/39 63/108/39 65/109/39 67/110/39 69/111/39 71/112/39
f 66/113/40 75/114/40 73/115/40 10/116/40 72/117/40 70/118/40 68/119/40
f 76/114/41 18/113/41 16/119/41 14/118/41 12/117/41 10/116/41 73/115/41
f 34/120/42 80/121/42 74/122/42 42/123/42 40/124/42 38/125/42 36/126/42
f 50/120/43 79/121/43 78/127/43 58/128/43 56/129/43 54/130/43 52/131/43
f 44/124/44 42/123/44 74/122/44 79/121/44 50/120/44 48/126/44 46/125/44
f 58/128/45 78/127/45 75/114/45 66/113/45 64/132/45 62/133/45 60/134/45
f 26/128/46 24/134/46 22/133/46 20/132/46 18/113/46 76/114/46 77/127/46
f 28/129/47 26/128/47 77/127/47 80/121/47 34/120/47 32/131/47 30/130/47
o Cylinder.001
v 0.000000 -0.105755 -0.171889
v 0.000000 -0.036111 -0.102245
v -0.044830 -0.102633 -0.168766
v 0.044830 -0.102633 -0.168766
v 0.049246 -0.070933 -0.137067
v -0.049246 -0.070933 -0.137067
v -0.044830 -0.039234 -0.105367
v 0.044830 -0.039234 -0.105367
v -0.000000 0.247798 -0.525442
v -0.000000 0.317442 -0.455798
v -0.044830 0.250920 -0.522320
v 0.044830 0.250920 -0.522320
v 0.049246 0.282620 -0.490620
v -0.049246 0.282620 -0.490620
v -0.044830 0.314320 -0.458920
v 0.044830 0.314320 -0.458920
vn -0.9952 -0.0693 -0.0693
vn -0.0000 0.7071 -0.7071
vn -0.0980 -0.7037 -0.7037
vn -0.9952 0.0693 0.0693
vn 0.0980 0.7037 0.7037
vn -0.0980 0.7037 0.7037
vn 0.9952 -0.0693 -0.0693
vn 0.0980 -0.7037 -0.7037
vn 0.9952 0.0693 0.0693
vt 0.884731 0.974643
vt 0.882612 0.953125
vt 0.927768 0.931606
vt 0.929888 0.953125
vt 0.927768 0.974643
vt 0.906250 0.976763
vt 0.884731 0.931606
vt 0.906250 0.929487
s 0
f 83/135/48 86/136/48 94/136/48 91/135/48
f 96/137/49 93/138/49 92/139/49 89/140/49 91/135/49 94/136/49 95/141/49 90/142/49
f 81/140/50 83/135/50 91/135/50 89/140/50
f 86/136/51 87/141/51 95/141/51 94/136/51
f 82/142/52 88/137/52 96/137/52 90/142/52
f 87/141/53 82/142/53 90/142/53 95/141/53
f 85/138/54 84/139/54 92/139/54 93/138/54
f 84/139/55 81/140/55 89/140/55 92/139/55
f 88/137/56 85/138/56 93/138/56 96/137/56
